<svg width="26" height="25" viewBox="0 0 26 25" fill="none" xmlns="http://www.w3.org/2000/svg">
<path fill-rule="evenodd" clip-rule="evenodd" d="M21.3129 12.4573C21.3129 13.265 22.0063 13.9222 22.8585 13.9222C23.2882 13.9222 23.637 14.2528 23.637 14.6601V17.3173C23.637 19.5643 21.7084 21.3922 19.3376 21.3922H7.17739C4.8066 21.3922 2.87695 19.5643 2.87695 17.3173V14.6601C2.87695 14.2528 3.22572 13.9222 3.65545 13.9222C4.50869 13.9222 5.20208 13.265 5.20208 12.4573C5.20208 11.6703 4.53672 11.078 3.65545 11.078C3.44889 11.078 3.25167 11.0003 3.10531 10.8616C2.95896 10.7229 2.87695 10.535 2.87695 10.3402L2.87903 7.59638C2.87903 5.34939 4.80764 3.52051 7.17843 3.52051H19.3355C21.7063 3.52051 23.636 5.34939 23.636 7.59638L23.637 10.2546C23.637 10.4494 23.555 10.6383 23.4097 10.776C23.2633 10.9147 23.0661 10.9925 22.8585 10.9925C22.0063 10.9925 21.3129 11.6496 21.3129 12.4573ZM15.5946 13.0994L16.8184 11.97C17.0312 11.7752 17.1049 11.488 17.0125 11.2223C16.9212 10.9567 16.6824 10.7678 16.3939 10.7295L14.703 10.4953L13.9463 9.04323C13.8165 8.79335 13.5529 8.63791 13.2591 8.63692H13.257C12.9643 8.63692 12.7007 8.79236 12.5688 9.04225L11.8121 10.4953L10.1244 10.7285C9.83267 10.7678 9.59393 10.9567 9.50155 11.2223C9.41021 11.488 9.4839 11.7752 9.69566 11.97L10.9195 13.0994L10.6309 14.6961C10.5811 14.9716 10.6984 15.2451 10.9371 15.4094C11.072 15.5009 11.2288 15.5481 11.3876 15.5481C11.509 15.5481 11.6315 15.5196 11.7436 15.4635L13.257 14.7099L14.7673 15.4615C15.0289 15.5943 15.3393 15.5737 15.577 15.4084C15.8168 15.2451 15.934 14.9716 15.8842 14.6961L15.5946 13.0994Z" fill="#D2D2D2"/>
</svg>
