<svg width="23" height="24" viewBox="0 0 23 24" fill="none" xmlns="http://www.w3.org/2000/svg">
<path d="M20.0494 17.2414C20.0494 16.8802 19.923 16.5732 19.6702 16.3204L16.8532 13.5034C16.6004 13.2506 16.2934 13.1242 15.9322 13.1242C15.553 13.1242 15.228 13.2686 14.9571 13.5576C14.9842 13.5846 15.0699 13.6682 15.2144 13.8081C15.3589 13.9481 15.4559 14.0451 15.5056 14.0993C15.5552 14.1535 15.623 14.2392 15.7087 14.3566C15.7945 14.474 15.8532 14.5891 15.8848 14.702C15.9164 14.8148 15.9322 14.939 15.9322 15.0744C15.9322 15.4356 15.8058 15.7426 15.553 15.9954C15.3002 16.2482 14.9932 16.3746 14.632 16.3746C14.4966 16.3746 14.3725 16.3588 14.2596 16.3272C14.1467 16.2956 14.0316 16.2369 13.9142 16.1511C13.7969 16.0653 13.7111 15.9976 13.6569 15.948C13.6027 15.8983 13.5057 15.8013 13.3657 15.6568C13.2258 15.5123 13.1423 15.4266 13.1152 15.3995C12.8172 15.6794 12.6682 16.0089 12.6682 16.3881C12.6682 16.7493 12.7946 17.0563 13.0475 17.3091L15.8374 20.1126C16.0812 20.3564 16.3882 20.4782 16.7584 20.4782C17.1195 20.4782 17.4265 20.3609 17.6793 20.1261L19.6702 18.1488C19.923 17.896 20.0494 17.5935 20.0494 17.2414ZM10.5284 7.69325C10.5284 7.3321 10.402 7.02511 10.1492 6.7723L7.35922 3.96881C7.10641 3.716 6.79942 3.5896 6.43827 3.5896C6.08614 3.5896 5.77915 3.71149 5.51731 3.95527L3.52643 5.93261C3.27362 6.18542 3.14721 6.48789 3.14721 6.84002C3.14721 7.20118 3.27362 7.50816 3.52643 7.76097L6.34346 10.578C6.58724 10.8218 6.89423 10.9437 7.26441 10.9437C7.64363 10.9437 7.96867 10.8037 8.23954 10.5238C8.21245 10.4967 8.12668 10.4132 7.98222 10.2733C7.83775 10.1333 7.74069 10.0363 7.69103 9.98209C7.64137 9.92792 7.57366 9.84214 7.48788 9.72477C7.40211 9.60739 7.34342 9.49227 7.31182 9.37941C7.28022 9.26655 7.26441 9.1424 7.26441 9.00697C7.26441 8.64581 7.39082 8.33882 7.64363 8.08601C7.89644 7.8332 8.20343 7.7068 8.56458 7.7068C8.70002 7.7068 8.82417 7.7226 8.93703 7.7542C9.04989 7.7858 9.16501 7.84449 9.28239 7.93026C9.39976 8.01604 9.48554 8.08376 9.53971 8.13342C9.59388 8.18307 9.69095 8.28014 9.83089 8.4246C9.97084 8.56906 10.0544 8.65484 10.0814 8.68192C10.3794 8.40203 10.5284 8.07247 10.5284 7.69325ZM22.6497 17.2414C22.6497 18.3248 22.266 19.2413 21.4986 19.9907L19.5077 21.968C18.7583 22.7174 17.8418 23.0921 16.7584 23.0921C15.6659 23.0921 14.7449 22.7084 13.9955 21.9409L11.2056 19.1374C10.4561 18.388 10.0814 17.4716 10.0814 16.3881C10.0814 15.2776 10.4787 14.334 11.2733 13.5576L10.0814 12.3657C9.30496 13.1603 8.36595 13.5576 7.26441 13.5576C6.18094 13.5576 5.25999 13.1783 4.50156 12.4199L1.68452 9.60288C0.926091 8.84445 0.546875 7.92349 0.546875 6.84002C0.546875 5.75654 0.930605 4.84011 1.69807 4.0907L3.68895 2.11336C4.43835 1.36396 5.35479 0.989258 6.43827 0.989258C7.53077 0.989258 8.45172 1.37299 9.20113 2.14045L11.9911 4.94394C12.7405 5.69334 13.1152 6.60978 13.1152 7.69325C13.1152 8.80382 12.7179 9.74734 11.9234 10.5238L13.1152 11.7157C13.8917 10.9211 14.8307 10.5238 15.9322 10.5238C17.0157 10.5238 17.9366 10.903 18.6951 11.6615L21.5121 14.4785C22.2705 15.2369 22.6497 16.1579 22.6497 17.2414Z" fill="black"/>
</svg>
