<svg width="40" height="40" viewBox="0 0 40 40" fill="none" xmlns="http://www.w3.org/2000/svg">
<path d="M7.721 32.5027C8.46662 33.2494 9.35244 33.8414 10.3276 34.2447C11.3027 34.648 12.3479 34.8546 13.4031 34.8527C14.4585 34.8546 15.504 34.6479 16.4793 34.2446C17.4547 33.8414 18.3408 33.2494 19.0868 32.5027L23.6324 27.9554L21.3596 25.6826L16.8139 30.2299C15.9081 31.1316 14.682 31.6379 13.4039 31.6379C12.1257 31.6379 10.8996 31.1316 9.99384 30.2299C9.0913 29.3245 8.5845 28.0982 8.5845 26.8198C8.5845 25.5414 9.0913 24.3152 9.99384 23.4098L14.5411 18.8641L12.2683 16.5913L7.721 21.137C6.21619 22.6454 5.37109 24.6891 5.37109 26.8198C5.37109 28.9505 6.21619 30.9943 7.721 32.5027ZM32.7254 18.8641C34.2294 17.3552 35.074 15.3117 35.074 13.1812C35.074 11.0508 34.2294 9.00722 32.7254 7.49835C31.2169 5.99353 29.1732 5.14844 27.0425 5.14844C24.9118 5.14844 22.8681 5.99353 21.3596 7.49835L16.8139 12.0456L19.0868 14.3185L23.6324 9.77118C24.5382 8.86943 25.7644 8.36316 27.0425 8.36316C28.3206 8.36316 29.5467 8.86943 30.4525 9.77118C31.3551 10.6766 31.8619 11.9028 31.8619 13.1812C31.8619 14.4596 31.3551 15.6859 30.4525 16.5913L25.9053 21.137L28.1781 23.4098L32.7254 18.8641Z" fill="#888888"/>
<path d="M14.5401 27.957L12.2656 25.6842L25.9074 12.0439L28.1803 14.3184L14.5401 27.957Z" fill="#888888"/>
</svg>
