<svg width="23" height="23" viewBox="0 0 23 23" fill="none" xmlns="http://www.w3.org/2000/svg">
<path fill-rule="evenodd" clip-rule="evenodd" d="M2.7168 11.4568C2.7168 6.47436 6.75146 2.43066 11.7429 2.43066C16.7253 2.43066 20.769 6.47436 20.769 11.4568C20.769 16.4482 16.7253 20.4829 11.7429 20.4829C6.75146 20.4829 2.7168 16.4482 2.7168 11.4568ZM13.7557 13.1083L15.2179 8.48699C15.3172 8.17107 15.0284 7.87321 14.7125 7.9725L10.0911 9.41667C9.90156 9.47986 9.74812 9.62427 9.69396 9.81382L8.24978 14.4442C8.1505 14.7511 8.44836 15.049 8.75525 14.9497L13.3586 13.5055C13.5481 13.4513 13.7015 13.2979 13.7557 13.1083Z" fill="#D2D2D2"/>
</svg>
