<svg width="23" height="23" viewBox="0 0 23 23" fill="none" xmlns="http://www.w3.org/2000/svg">
<path fill-rule="evenodd" clip-rule="evenodd" d="M2.71289 11.4568C2.71289 6.47436 6.74756 2.43066 11.739 2.43066C16.7214 2.43066 20.7651 6.47436 20.7651 11.4568C20.7651 16.4482 16.7214 20.4829 11.739 20.4829C6.74756 20.4829 2.71289 16.4482 2.71289 11.4568ZM13.7519 13.1083L15.2141 8.48699C15.3134 8.17107 15.0246 7.87321 14.7086 7.9725L10.0873 9.41667C9.89774 9.47986 9.74429 9.62427 9.69014 9.81382L8.24596 14.4442C8.14667 14.7511 8.44453 15.049 8.75142 14.9497L13.3547 13.5055C13.5443 13.4513 13.6977 13.2979 13.7519 13.1083Z" fill="black"/>
</svg>
