<svg width="24" height="11" viewBox="0 0 24 11" fill="none" xmlns="http://www.w3.org/2000/svg">
<g clip-path="url(#clip0_5_14514)">
<path d="M11 5.61573C11 5.86194 11.4477 6.06153 12 6.06153C12.5523 6.06153 13 5.86194 13 5.61573C13 5.36952 12.5523 5.16992 12 5.16992C11.4477 5.16992 11 5.36952 11 5.61573Z" stroke="#CBD5E0" stroke-width="2" stroke-linecap="round" stroke-linejoin="round"/>
<path d="M4 5.61573C4 5.86194 4.44772 6.06153 5 6.06153C5.55228 6.06153 6 5.86194 6 5.61573C6 5.36952 5.55228 5.16992 5 5.16992C4.44772 5.16992 4 5.36952 4 5.61573Z" stroke="#CBD5E0" stroke-width="2" stroke-linecap="round" stroke-linejoin="round"/>
<path d="M18 5.61573C18 5.86194 18.4477 6.06153 19 6.06153C19.5523 6.06153 20 5.86194 20 5.61573C20 5.36952 19.5523 5.16992 19 5.16992C18.4477 5.16992 18 5.36952 18 5.61573Z" stroke="#CBD5E0" stroke-width="2" stroke-linecap="round" stroke-linejoin="round"/>
</g>
<defs>
<clipPath id="clip0_5_14514">
<rect width="10.6993" height="24" fill="white" transform="translate(24 0.265625) rotate(90)"/>
</clipPath>
</defs>
</svg>
