<svg width="99" height="25" viewBox="0 0 99 25" fill="none" xmlns="http://www.w3.org/2000/svg">
<path d="M25.8851 8.56836H35.8481V10.4231H31.9253V20.8786H29.7751V10.4231H25.8687L25.8851 8.56836ZM35.4214 11.966H37.2597V13.6894H37.2925C37.3582 13.4432 37.4731 13.2134 37.6372 12.9836C37.8013 12.7538 37.9983 12.5405 38.2445 12.3599C38.4743 12.1629 38.7369 12.0152 39.0324 11.9003C39.3114 11.7854 39.6068 11.7198 39.9023 11.7198C40.1321 11.7198 40.2962 11.7362 40.3783 11.7362C40.4604 11.7526 40.5588 11.769 40.6409 11.769V13.6566C40.5096 13.6238 40.3619 13.6073 40.2142 13.5909C40.0664 13.5745 39.9351 13.5581 39.7874 13.5581C39.4591 13.5581 39.1473 13.6237 38.8518 13.7551C38.5564 13.8864 38.3102 14.0833 38.0804 14.3295C37.867 14.5922 37.6865 14.904 37.5551 15.2815C37.4238 15.659 37.3582 16.1022 37.3582 16.5946V20.8293H35.3885L35.4214 11.966ZM49.6684 20.8786H47.7316V19.6311H47.6988C47.4526 20.0907 47.0915 20.4354 46.6155 20.7144C46.1395 20.9935 45.6471 21.1248 45.1546 21.1248C43.9893 21.1248 43.1358 20.8457 42.6105 20.2549C42.0853 19.6804 41.8227 18.794 41.8227 17.6287V11.966H43.7923V17.4317C43.7923 18.2196 43.94 18.7776 44.2519 19.0895C44.5473 19.4178 44.9741 19.5819 45.5157 19.5819C45.9261 19.5819 46.2708 19.5162 46.5498 19.3849C46.8288 19.2536 47.0586 19.0895 47.2228 18.8761C47.4033 18.6627 47.5182 18.4001 47.6003 18.1047C47.6823 17.8092 47.7152 17.4809 47.7152 17.1363V11.966H49.6848V20.8786H49.6684ZM53.0168 18.0226C53.0824 18.5971 53.2958 18.991 53.6733 19.2372C54.0508 19.467 54.5104 19.5819 55.0356 19.5819C55.2162 19.5819 55.4296 19.5655 55.6594 19.5327C55.8892 19.4998 56.1189 19.4506 56.3159 19.3685C56.5293 19.2864 56.6934 19.1716 56.8247 19.0074C56.956 18.8433 57.0217 18.6463 57.0053 18.4001C56.9889 18.1539 56.9068 17.9405 56.7262 17.7764C56.5457 17.6123 56.3323 17.4974 56.0697 17.3825C55.8071 17.284 55.4952 17.2019 55.1505 17.1363C54.8059 17.0706 54.4612 16.9885 54.1001 16.9065C53.739 16.8244 53.3779 16.7259 53.0332 16.611C52.6885 16.4961 52.3931 16.3484 52.114 16.135C51.8514 15.9381 51.6216 15.6919 51.4739 15.38C51.3098 15.0682 51.2277 14.707 51.2277 14.2475C51.2277 13.7551 51.3426 13.3611 51.5888 13.0329C51.8186 12.7046 52.1304 12.442 52.4915 12.245C52.8526 12.048 53.263 11.9003 53.7061 11.8183C54.1493 11.7362 54.5761 11.7034 54.97 11.7034C55.4296 11.7034 55.8727 11.7526 56.2831 11.8511C56.6934 11.9496 57.0873 12.0973 57.4156 12.3271C57.7603 12.5405 58.0393 12.8359 58.2527 13.1806C58.4825 13.5253 58.6138 13.952 58.6795 14.4444H56.6278C56.5293 13.9684 56.3159 13.6566 55.9876 13.4924C55.6429 13.3283 55.2654 13.2462 54.8223 13.2462C54.691 13.2462 54.5104 13.2627 54.3299 13.2791C54.1329 13.3119 53.9688 13.3447 53.7882 13.4104C53.6241 13.476 53.4764 13.5745 53.3615 13.6894C53.2466 13.8043 53.1809 13.9684 53.1809 14.1654C53.1809 14.4116 53.263 14.5922 53.4271 14.7399C53.5912 14.8876 53.8046 15.0025 54.0837 15.1174C54.3463 15.2159 54.6581 15.2979 55.0028 15.3636C55.3475 15.4292 55.7086 15.5113 56.0697 15.5934C56.4308 15.6755 56.7755 15.7739 57.1202 15.8888C57.4649 16.0037 57.7767 16.1514 58.0393 16.3648C58.302 16.5618 58.5317 16.808 58.6959 17.1034C58.86 17.3989 58.9421 17.7764 58.9421 18.2031C58.9421 18.7284 58.8272 19.1716 58.581 19.5491C58.3348 19.9102 58.0229 20.222 57.6454 20.4518C57.2679 20.6816 56.8247 20.8457 56.3651 20.9606C55.8892 21.0591 55.4296 21.1248 54.97 21.1248C54.4119 21.1248 53.8867 21.0591 53.4107 20.9278C52.9347 20.7965 52.5079 20.5995 52.1633 20.3533C51.8186 20.0907 51.5395 19.7789 51.3426 19.3849C51.1456 19.0074 51.0307 18.5478 51.0143 18.0062H53.0004V18.0226H53.0168ZM59.5001 11.966H60.9938V9.27414H62.9634V11.9496H64.7361V13.4104H62.9634V18.1703C62.9634 18.3837 62.9798 18.5478 62.9962 18.712C63.0127 18.8597 63.0619 18.991 63.1111 19.0895C63.1768 19.188 63.2753 19.27 63.3902 19.3193C63.5215 19.3685 63.6856 19.4013 63.9154 19.4013C64.0467 19.4013 64.1944 19.4013 64.3257 19.3849C64.4571 19.3685 64.6048 19.3521 64.7361 19.3193V20.8457C64.5227 20.8786 64.3093 20.895 64.096 20.9114C63.8826 20.9442 63.6856 20.9442 63.4558 20.9442C62.9306 20.9442 62.5203 20.895 62.2084 20.7965C61.8965 20.698 61.6503 20.5503 61.4698 20.3697C61.2892 20.1728 61.1743 19.943 61.1087 19.664C61.043 19.3849 61.0102 19.0402 60.9938 18.6791V13.4268H59.5001V11.9332V11.966ZM66.1148 11.966H67.9696V13.1806H68.0024C68.2814 12.6553 68.6589 12.2942 69.1514 12.0645C69.6438 11.8347 70.169 11.7198 70.7599 11.7198C71.4657 11.7198 72.073 11.8347 72.5982 12.0973C73.1234 12.3435 73.5502 12.6718 73.8949 13.1149C74.2396 13.5417 74.5022 14.0505 74.6663 14.625C74.8305 15.1995 74.9289 15.8232 74.9289 16.4633C74.9289 17.0706 74.8469 17.6451 74.6992 18.2031C74.535 18.7612 74.3052 19.27 73.9934 19.6968C73.6815 20.1235 73.2876 20.4682 72.7952 20.7308C72.3028 20.9935 71.7447 21.1248 71.0882 21.1248C70.8091 21.1248 70.5137 21.0919 70.2346 21.0427C69.9556 20.9935 69.6766 20.9114 69.414 20.7965C69.1514 20.6816 68.9051 20.5339 68.6918 20.3533C68.462 20.1728 68.2814 19.9594 68.1337 19.7296H68.1009V24.1777H66.1312V11.966H66.1148ZM72.9921 16.4305C72.9921 16.0366 72.9429 15.6426 72.828 15.2651C72.7295 14.8876 72.5654 14.5593 72.352 14.2639C72.1386 13.9684 71.876 13.7386 71.5806 13.5581C71.2687 13.3775 70.9076 13.2955 70.5137 13.2955C69.693 13.2955 69.0693 13.5745 68.6425 14.149C68.2322 14.7235 68.0188 15.4949 68.0188 16.4469C68.0188 16.9065 68.0681 17.3168 68.1829 17.6943C68.2978 18.0718 68.4456 18.4001 68.6754 18.6791C68.8887 18.9582 69.1514 19.1716 69.4632 19.3357C69.7751 19.4998 70.1198 19.5819 70.5301 19.5819C70.9897 19.5819 71.3508 19.4834 71.6626 19.3029C71.9745 19.1223 72.2207 18.8761 72.4341 18.5971C72.631 18.3016 72.7788 17.9734 72.8608 17.5958C72.9429 17.2019 72.9921 16.8244 72.9921 16.4305ZM76.4554 8.56836H78.425V10.4231H76.4554V8.56836ZM76.4554 11.966H78.425V20.8786H76.4554V11.966ZM80.1813 8.56836H82.1509V20.8786H80.1813V8.56836ZM88.1583 21.1248C87.4525 21.1248 86.8124 21.0099 86.2543 20.7637C85.6963 20.5175 85.2367 20.2056 84.8428 19.7953C84.4653 19.3849 84.1698 18.8761 83.9728 18.3016C83.7759 17.7272 83.661 17.087 83.661 16.4141C83.661 15.7411 83.7595 15.1174 83.9728 14.5429C84.1698 13.9684 84.4653 13.476 84.8428 13.0493C85.2203 12.6389 85.6963 12.3107 86.2543 12.0809C86.8124 11.8511 87.4525 11.7198 88.1583 11.7198C88.8641 11.7198 89.5042 11.8347 90.0623 12.0809C90.6204 12.3107 91.0799 12.6389 91.4739 13.0493C91.8514 13.4596 92.1468 13.9684 92.3438 14.5429C92.5407 15.1174 92.6556 15.7411 92.6556 16.4141C92.6556 17.1034 92.5572 17.7272 92.3438 18.3016C92.1304 18.8761 91.8514 19.3685 91.4739 19.7953C91.0964 20.2056 90.6204 20.5339 90.0623 20.7637C89.5042 20.9935 88.8805 21.1248 88.1583 21.1248ZM88.1583 19.5655C88.5851 19.5655 88.979 19.467 89.2909 19.2864C89.6191 19.1059 89.8653 18.8597 90.0787 18.5642C90.2921 18.2688 90.4398 17.9241 90.5383 17.563C90.6368 17.1855 90.686 16.808 90.686 16.4141C90.686 16.0366 90.6368 15.659 90.5383 15.2815C90.4398 14.904 90.2921 14.5757 90.0787 14.2803C89.8653 13.9849 89.6027 13.7551 89.2909 13.5745C88.9626 13.394 88.5851 13.2955 88.1583 13.2955C87.7316 13.2955 87.3376 13.394 87.0258 13.5745C86.6975 13.7551 86.4513 14.0013 86.2379 14.2803C86.0246 14.5757 85.8768 14.904 85.7783 15.2815C85.6799 15.659 85.6306 16.0366 85.6306 16.4141C85.6306 16.808 85.6799 17.1855 85.7783 17.563C85.8768 17.9405 86.0246 18.2688 86.2379 18.5642C86.4513 18.8597 86.7139 19.1059 87.0258 19.2864C87.3541 19.4834 87.7316 19.5655 88.1583 19.5655ZM93.2465 11.966H94.7402V9.27414H96.7098V11.9496H98.4825V13.4104H96.7098V18.1703C96.7098 18.3837 96.7262 18.5478 96.7426 18.712C96.7591 18.8597 96.8083 18.991 96.8575 19.0895C96.9232 19.188 97.0217 19.27 97.1366 19.3193C97.2679 19.3685 97.432 19.4013 97.6618 19.4013C97.7931 19.4013 97.9408 19.4013 98.0721 19.3849C98.2035 19.3685 98.3512 19.3521 98.4825 19.3193V20.8457C98.2691 20.8786 98.0557 20.895 97.8424 20.9114C97.629 20.9442 97.432 20.9442 97.2022 20.9442C96.677 20.9442 96.2666 20.895 95.9548 20.7965C95.6429 20.698 95.3967 20.5503 95.2162 20.3697C95.0356 20.1728 94.9207 19.943 94.8551 19.664C94.7894 19.3849 94.7566 19.0402 94.7402 18.6791V13.4268H93.2465V11.9332V11.966Z" fill="black"/>
<path d="M23.5868 8.56791H14.5758L11.8019 0L9.01156 8.56791L0.000488281 8.55149L7.28813 13.8531L4.49782 22.421L11.7855 17.1194L19.0731 22.421L16.2992 13.8531L23.5868 8.56791Z" fill="#00B67A"/>
<path d="M16.9233 15.7913L16.2996 13.8545L11.8022 17.1208L16.9233 15.7913Z" fill="#005128"/>
</svg>
