<svg xmlns="http://www.w3.org/2000/svg" viewBox="0 0 50 50" id="heart"><path fill="#231F20" d="M23.024 39.274a.999.999 0 0 0 .745.333h.001a1 1 0 0 0 .745-.334l13.184-14.771a9.073 9.073 0 0 0 2.058-5.732c0-5.053-4.193-9.163-9.348-9.163-2.538 0-4.904.98-6.652 2.725-1.748-1.744-4.114-2.725-6.652-2.725-5.154 0-9.348 4.11-9.348 9.163 0 2.078.731 4.115 2.094 5.777.128.156 10.116 11.312 13.173 14.727zm-5.92-27.667c2.321 0 4.458 1.038 5.862 2.846.379.488 1.201.488 1.58 0 1.404-1.809 3.541-2.846 5.862-2.846 4.052 0 7.348 3.213 7.348 7.163a6.95 6.95 0 0 1-1.577 4.433l-12.41 13.904c-4.576-5.111-12.165-13.59-12.405-13.869a6.979 6.979 0 0 1-1.606-4.468c-.001-3.949 3.295-7.163 7.346-7.163z"></path></svg>