<svg width="243" height="124" viewBox="0 0 243 124" fill="none" xmlns="http://www.w3.org/2000/svg">
<g opacity="0.7">
<rect x="148.104" y="123.092" width="2.01956" height="2.02287" transform="rotate(-90 148.104 123.092)" fill="#C5C5C5"/>
<rect x="148.104" y="109.647" width="2.01956" height="2.02287" transform="rotate(-90 148.104 109.647)" fill="#C5C5C5"/>
<rect x="148.104" y="96.1992" width="2.01956" height="2.02287" transform="rotate(-90 148.104 96.1992)" fill="#C5C5C5"/>
<rect x="148.104" y="82.75" width="2.01956" height="2.02287" transform="rotate(-90 148.104 82.75)" fill="#C5C5C5"/>
<rect x="148.104" y="69.3066" width="2.01956" height="2.02287" transform="rotate(-90 148.104 69.3066)" fill="#C5C5C5"/>
<rect x="148.104" y="55.8623" width="2.01956" height="2.02287" transform="rotate(-90 148.104 55.8623)" fill="#C5C5C5"/>
<rect x="148.104" y="42.415" width="2.01956" height="2.02287" transform="rotate(-90 148.104 42.415)" fill="#C5C5C5"/>
<rect x="148.104" y="28.9648" width="2.01956" height="2.02287" transform="rotate(-90 148.104 28.9648)" fill="#C5C5C5"/>
<rect x="148.104" y="15.5205" width="2.01956" height="2.02287" transform="rotate(-90 148.104 15.5205)" fill="#C5C5C5"/>
<rect x="148.104" y="2.07617" width="2.01956" height="2.02287" transform="rotate(-90 148.104 2.07617)" fill="#C5C5C5"/>
<rect x="161.571" y="123.092" width="2.01956" height="2.02287" transform="rotate(-90 161.571 123.092)" fill="#C5C5C5"/>
<rect x="161.571" y="109.647" width="2.01956" height="2.02287" transform="rotate(-90 161.571 109.647)" fill="#C5C5C5"/>
<rect x="161.571" y="96.1992" width="2.01956" height="2.02287" transform="rotate(-90 161.571 96.1992)" fill="#C5C5C5"/>
<rect x="161.571" y="82.75" width="2.01956" height="2.02287" transform="rotate(-90 161.571 82.75)" fill="#C5C5C5"/>
<rect x="161.571" y="69.3066" width="2.01956" height="2.02287" transform="rotate(-90 161.571 69.3066)" fill="#C5C5C5"/>
<rect x="161.571" y="55.8623" width="2.01956" height="2.02287" transform="rotate(-90 161.571 55.8623)" fill="#C5C5C5"/>
<rect x="161.571" y="42.415" width="2.01956" height="2.02287" transform="rotate(-90 161.571 42.415)" fill="#C5C5C5"/>
<rect x="161.571" y="28.9648" width="2.01956" height="2.02287" transform="rotate(-90 161.571 28.9648)" fill="#C5C5C5"/>
<rect x="161.571" y="15.5205" width="2.01956" height="2.02287" transform="rotate(-90 161.571 15.5205)" fill="#C5C5C5"/>
<rect x="161.571" y="2.07617" width="2.01956" height="2.02287" transform="rotate(-90 161.571 2.07617)" fill="#C5C5C5"/>
<rect x="175.045" y="123.092" width="2.01956" height="2.02287" transform="rotate(-90 175.045 123.092)" fill="#C5C5C5"/>
<rect x="175.045" y="109.647" width="2.01956" height="2.02287" transform="rotate(-90 175.045 109.647)" fill="#C5C5C5"/>
<rect x="175.045" y="96.1992" width="2.01956" height="2.02287" transform="rotate(-90 175.045 96.1992)" fill="#C5C5C5"/>
<rect x="175.045" y="82.75" width="2.01956" height="2.02287" transform="rotate(-90 175.045 82.75)" fill="#C5C5C5"/>
<rect x="175.045" y="69.3066" width="2.01956" height="2.02287" transform="rotate(-90 175.045 69.3066)" fill="#C5C5C5"/>
<rect x="175.045" y="55.8623" width="2.01956" height="2.02287" transform="rotate(-90 175.045 55.8623)" fill="#C5C5C5"/>
<rect x="175.045" y="42.415" width="2.01956" height="2.02287" transform="rotate(-90 175.045 42.415)" fill="#C5C5C5"/>
<rect x="175.045" y="28.9648" width="2.01956" height="2.02287" transform="rotate(-90 175.045 28.9648)" fill="#C5C5C5"/>
<rect x="175.045" y="15.5205" width="2.01956" height="2.02287" transform="rotate(-90 175.045 15.5205)" fill="#C5C5C5"/>
<rect x="175.045" y="2.07617" width="2.01956" height="2.02287" transform="rotate(-90 175.045 2.07617)" fill="#C5C5C5"/>
<rect x="188.511" y="123.092" width="2.01956" height="2.02287" transform="rotate(-90 188.511 123.092)" fill="#C5C5C5"/>
<rect x="188.511" y="109.647" width="2.01956" height="2.02287" transform="rotate(-90 188.511 109.647)" fill="#C5C5C5"/>
<rect x="188.511" y="96.1992" width="2.01956" height="2.02287" transform="rotate(-90 188.511 96.1992)" fill="#C5C5C5"/>
<rect x="188.511" y="82.75" width="2.01956" height="2.02287" transform="rotate(-90 188.511 82.75)" fill="#C5C5C5"/>
<rect x="188.511" y="69.3066" width="2.01956" height="2.02287" transform="rotate(-90 188.511 69.3066)" fill="#C5C5C5"/>
<rect x="188.511" y="55.8623" width="2.01956" height="2.02287" transform="rotate(-90 188.511 55.8623)" fill="#C5C5C5"/>
<rect x="188.511" y="42.415" width="2.01956" height="2.02287" transform="rotate(-90 188.511 42.415)" fill="#C5C5C5"/>
<rect x="188.511" y="28.9648" width="2.01956" height="2.02287" transform="rotate(-90 188.511 28.9648)" fill="#C5C5C5"/>
<rect x="188.511" y="15.5205" width="2.01956" height="2.02287" transform="rotate(-90 188.511 15.5205)" fill="#C5C5C5"/>
<rect x="188.511" y="2.07617" width="2.01956" height="2.02287" transform="rotate(-90 188.511 2.07617)" fill="#C5C5C5"/>
<rect x="201.979" y="123.092" width="2.01956" height="2.02287" transform="rotate(-90 201.979 123.092)" fill="#C5C5C5"/>
<rect x="201.979" y="109.647" width="2.01956" height="2.02287" transform="rotate(-90 201.979 109.647)" fill="#C5C5C5"/>
<rect x="201.979" y="96.1992" width="2.01956" height="2.02287" transform="rotate(-90 201.979 96.1992)" fill="#C5C5C5"/>
<rect x="201.979" y="82.75" width="2.01956" height="2.02287" transform="rotate(-90 201.979 82.75)" fill="#C5C5C5"/>
<rect x="201.979" y="69.3066" width="2.01956" height="2.02287" transform="rotate(-90 201.979 69.3066)" fill="#C5C5C5"/>
<rect x="201.979" y="55.8623" width="2.01956" height="2.02287" transform="rotate(-90 201.979 55.8623)" fill="#C5C5C5"/>
<rect x="201.979" y="42.415" width="2.01956" height="2.02287" transform="rotate(-90 201.979 42.415)" fill="#C5C5C5"/>
<rect x="201.979" y="28.9648" width="2.01956" height="2.02287" transform="rotate(-90 201.979 28.9648)" fill="#C5C5C5"/>
<rect x="201.979" y="15.5205" width="2.01956" height="2.02287" transform="rotate(-90 201.979 15.5205)" fill="#C5C5C5"/>
<rect x="201.979" y="2.07617" width="2.01956" height="2.02287" transform="rotate(-90 201.979 2.07617)" fill="#C5C5C5"/>
<rect x="215.445" y="123.092" width="2.01956" height="2.02287" transform="rotate(-90 215.445 123.092)" fill="#C5C5C5"/>
<rect x="215.445" y="109.647" width="2.01956" height="2.02287" transform="rotate(-90 215.445 109.647)" fill="#C5C5C5"/>
<rect x="215.445" y="96.1992" width="2.01956" height="2.02287" transform="rotate(-90 215.445 96.1992)" fill="#C5C5C5"/>
<rect x="215.445" y="82.75" width="2.01956" height="2.02287" transform="rotate(-90 215.445 82.75)" fill="#C5C5C5"/>
<rect x="215.445" y="69.3066" width="2.01956" height="2.02287" transform="rotate(-90 215.445 69.3066)" fill="#C5C5C5"/>
<rect x="215.445" y="55.8623" width="2.01956" height="2.02287" transform="rotate(-90 215.445 55.8623)" fill="#C5C5C5"/>
<rect x="215.445" y="42.415" width="2.01956" height="2.02287" transform="rotate(-90 215.445 42.415)" fill="#C5C5C5"/>
<rect x="215.445" y="28.9648" width="2.01956" height="2.02287" transform="rotate(-90 215.445 28.9648)" fill="#C5C5C5"/>
<rect x="215.445" y="15.5205" width="2.01956" height="2.02287" transform="rotate(-90 215.445 15.5205)" fill="#C5C5C5"/>
<rect x="215.445" y="2.07617" width="2.01956" height="2.02287" transform="rotate(-90 215.445 2.07617)" fill="#C5C5C5"/>
<rect x="228.919" y="123.092" width="2.01956" height="2.02287" transform="rotate(-90 228.919 123.092)" fill="#C5C5C5"/>
<rect x="228.919" y="109.647" width="2.01956" height="2.02287" transform="rotate(-90 228.919 109.647)" fill="#C5C5C5"/>
<rect x="228.919" y="96.1992" width="2.01956" height="2.02287" transform="rotate(-90 228.919 96.1992)" fill="#C5C5C5"/>
<rect x="228.919" y="82.75" width="2.01956" height="2.02287" transform="rotate(-90 228.919 82.75)" fill="#C5C5C5"/>
<rect x="228.919" y="69.3066" width="2.01956" height="2.02287" transform="rotate(-90 228.919 69.3066)" fill="#C5C5C5"/>
<rect x="228.919" y="55.8623" width="2.01956" height="2.02287" transform="rotate(-90 228.919 55.8623)" fill="#C5C5C5"/>
<rect x="228.919" y="42.415" width="2.01956" height="2.02287" transform="rotate(-90 228.919 42.415)" fill="#C5C5C5"/>
<rect x="228.919" y="28.9648" width="2.01956" height="2.02287" transform="rotate(-90 228.919 28.9648)" fill="#C5C5C5"/>
<rect x="228.919" y="15.5205" width="2.01956" height="2.02287" transform="rotate(-90 228.919 15.5205)" fill="#C5C5C5"/>
<rect x="228.919" y="2.07617" width="2.01956" height="2.02287" transform="rotate(-90 228.919 2.07617)" fill="#C5C5C5"/>
<rect x="242.384" y="123.092" width="2.01956" height="2.02287" transform="rotate(-90 242.384 123.092)" fill="#C5C5C5"/>
<rect x="242.386" y="109.647" width="2.01956" height="2.02287" transform="rotate(-90 242.386 109.647)" fill="#C5C5C5"/>
<rect x="242.386" y="96.1992" width="2.01956" height="2.02287" transform="rotate(-90 242.386 96.1992)" fill="#C5C5C5"/>
<rect x="242.386" y="82.75" width="2.01956" height="2.02287" transform="rotate(-90 242.386 82.75)" fill="#C5C5C5"/>
<rect x="242.386" y="69.3066" width="2.01956" height="2.02287" transform="rotate(-90 242.386 69.3066)" fill="#C5C5C5"/>
<rect x="242.386" y="55.8623" width="2.01956" height="2.02287" transform="rotate(-90 242.386 55.8623)" fill="#C5C5C5"/>
<rect x="242.386" y="42.415" width="2.01956" height="2.02287" transform="rotate(-90 242.386 42.415)" fill="#C5C5C5"/>
<rect x="242.386" y="28.9648" width="2.01956" height="2.02287" transform="rotate(-90 242.386 28.9648)" fill="#C5C5C5"/>
<rect x="242.386" y="15.5205" width="2.01956" height="2.02287" transform="rotate(-90 242.386 15.5205)" fill="#C5C5C5"/>
<rect x="242.386" y="2.07617" width="2.01956" height="2.02287" transform="rotate(-90 242.386 2.07617)" fill="#C5C5C5"/>
</g>
<g opacity="0.7">
<rect x="0.586914" y="123.092" width="2.01956" height="2.02287" transform="rotate(-90 0.586914 123.092)" fill="#C5C5C5"/>
<rect x="0.586914" y="109.647" width="2.01956" height="2.02287" transform="rotate(-90 0.586914 109.647)" fill="#C5C5C5"/>
<rect x="0.586914" y="96.1992" width="2.01956" height="2.02287" transform="rotate(-90 0.586914 96.1992)" fill="#C5C5C5"/>
<rect x="0.586914" y="82.75" width="2.01956" height="2.02287" transform="rotate(-90 0.586914 82.75)" fill="#C5C5C5"/>
<rect x="0.586914" y="69.3057" width="2.01956" height="2.02287" transform="rotate(-90 0.586914 69.3057)" fill="#C5C5C5"/>
<rect x="0.586914" y="55.8623" width="2.01956" height="2.02287" transform="rotate(-90 0.586914 55.8623)" fill="#C5C5C5"/>
<rect x="0.586914" y="42.415" width="2.01956" height="2.02287" transform="rotate(-90 0.586914 42.415)" fill="#C5C5C5"/>
<rect x="0.586914" y="28.9648" width="2.01956" height="2.02287" transform="rotate(-90 0.586914 28.9648)" fill="#C5C5C5"/>
<rect x="0.586914" y="15.5205" width="2.01956" height="2.02287" transform="rotate(-90 0.586914 15.5205)" fill="#C5C5C5"/>
<rect x="0.586914" y="2.0752" width="2.01956" height="2.02287" transform="rotate(-90 0.586914 2.0752)" fill="#C5C5C5"/>
<rect x="14.0527" y="123.092" width="2.01956" height="2.02287" transform="rotate(-90 14.0527 123.092)" fill="#C5C5C5"/>
<rect x="14.0527" y="109.647" width="2.01956" height="2.02287" transform="rotate(-90 14.0527 109.647)" fill="#C5C5C5"/>
<rect x="14.0527" y="96.1992" width="2.01956" height="2.02287" transform="rotate(-90 14.0527 96.1992)" fill="#C5C5C5"/>
<rect x="14.0527" y="82.75" width="2.01956" height="2.02287" transform="rotate(-90 14.0527 82.75)" fill="#C5C5C5"/>
<rect x="14.0527" y="69.3057" width="2.01956" height="2.02287" transform="rotate(-90 14.0527 69.3057)" fill="#C5C5C5"/>
<rect x="14.0527" y="55.8623" width="2.01956" height="2.02287" transform="rotate(-90 14.0527 55.8623)" fill="#C5C5C5"/>
<rect x="14.0527" y="42.415" width="2.01956" height="2.02287" transform="rotate(-90 14.0527 42.415)" fill="#C5C5C5"/>
<rect x="14.0527" y="28.9648" width="2.01956" height="2.02287" transform="rotate(-90 14.0527 28.9648)" fill="#C5C5C5"/>
<rect x="14.0527" y="15.5205" width="2.01956" height="2.02287" transform="rotate(-90 14.0527 15.5205)" fill="#C5C5C5"/>
<rect x="14.0527" y="2.0752" width="2.01956" height="2.02287" transform="rotate(-90 14.0527 2.0752)" fill="#C5C5C5"/>
<rect x="27.5273" y="123.092" width="2.01956" height="2.02287" transform="rotate(-90 27.5273 123.092)" fill="#C5C5C5"/>
<rect x="27.5273" y="109.647" width="2.01956" height="2.02287" transform="rotate(-90 27.5273 109.647)" fill="#C5C5C5"/>
<rect x="27.5273" y="96.1992" width="2.01956" height="2.02287" transform="rotate(-90 27.5273 96.1992)" fill="#C5C5C5"/>
<rect x="27.5273" y="82.75" width="2.01956" height="2.02287" transform="rotate(-90 27.5273 82.75)" fill="#C5C5C5"/>
<rect x="27.5273" y="69.3057" width="2.01956" height="2.02287" transform="rotate(-90 27.5273 69.3057)" fill="#C5C5C5"/>
<rect x="27.5273" y="55.8623" width="2.01956" height="2.02287" transform="rotate(-90 27.5273 55.8623)" fill="#C5C5C5"/>
<rect x="27.5273" y="42.415" width="2.01956" height="2.02287" transform="rotate(-90 27.5273 42.415)" fill="#C5C5C5"/>
<rect x="27.5273" y="28.9648" width="2.01956" height="2.02287" transform="rotate(-90 27.5273 28.9648)" fill="#C5C5C5"/>
<rect x="27.5273" y="15.5205" width="2.01956" height="2.02287" transform="rotate(-90 27.5273 15.5205)" fill="#C5C5C5"/>
<rect x="27.5273" y="2.0752" width="2.01956" height="2.02287" transform="rotate(-90 27.5273 2.0752)" fill="#C5C5C5"/>
<rect x="40.9932" y="123.092" width="2.01956" height="2.02287" transform="rotate(-90 40.9932 123.092)" fill="#C5C5C5"/>
<rect x="40.9932" y="109.647" width="2.01956" height="2.02287" transform="rotate(-90 40.9932 109.647)" fill="#C5C5C5"/>
<rect x="40.9932" y="96.1992" width="2.01956" height="2.02287" transform="rotate(-90 40.9932 96.1992)" fill="#C5C5C5"/>
<rect x="40.9932" y="82.75" width="2.01956" height="2.02287" transform="rotate(-90 40.9932 82.75)" fill="#C5C5C5"/>
<rect x="40.9932" y="69.3057" width="2.01956" height="2.02287" transform="rotate(-90 40.9932 69.3057)" fill="#C5C5C5"/>
<rect x="40.9932" y="55.8623" width="2.01956" height="2.02287" transform="rotate(-90 40.9932 55.8623)" fill="#C5C5C5"/>
<rect x="40.9932" y="42.415" width="2.01956" height="2.02287" transform="rotate(-90 40.9932 42.415)" fill="#C5C5C5"/>
<rect x="40.9932" y="28.9648" width="2.01956" height="2.02287" transform="rotate(-90 40.9932 28.9648)" fill="#C5C5C5"/>
<rect x="40.9932" y="15.5205" width="2.01956" height="2.02287" transform="rotate(-90 40.9932 15.5205)" fill="#C5C5C5"/>
<rect x="40.9932" y="2.0752" width="2.01956" height="2.02287" transform="rotate(-90 40.9932 2.0752)" fill="#C5C5C5"/>
<rect x="54.4609" y="123.092" width="2.01956" height="2.02287" transform="rotate(-90 54.4609 123.092)" fill="#C5C5C5"/>
<rect x="54.4609" y="109.647" width="2.01956" height="2.02287" transform="rotate(-90 54.4609 109.647)" fill="#C5C5C5"/>
<rect x="54.4609" y="96.1992" width="2.01956" height="2.02287" transform="rotate(-90 54.4609 96.1992)" fill="#C5C5C5"/>
<rect x="54.4609" y="82.75" width="2.01956" height="2.02287" transform="rotate(-90 54.4609 82.75)" fill="#C5C5C5"/>
<rect x="54.4609" y="69.3057" width="2.01956" height="2.02287" transform="rotate(-90 54.4609 69.3057)" fill="#C5C5C5"/>
<rect x="54.4609" y="55.8623" width="2.01956" height="2.02287" transform="rotate(-90 54.4609 55.8623)" fill="#C5C5C5"/>
<rect x="54.4609" y="42.415" width="2.01956" height="2.02287" transform="rotate(-90 54.4609 42.415)" fill="#C5C5C5"/>
<rect x="54.4609" y="28.9648" width="2.01956" height="2.02287" transform="rotate(-90 54.4609 28.9648)" fill="#C5C5C5"/>
<rect x="54.4609" y="15.5205" width="2.01956" height="2.02287" transform="rotate(-90 54.4609 15.5205)" fill="#C5C5C5"/>
<rect x="54.4609" y="2.0752" width="2.01956" height="2.02287" transform="rotate(-90 54.4609 2.0752)" fill="#C5C5C5"/>
<rect x="67.9277" y="123.092" width="2.01956" height="2.02287" transform="rotate(-90 67.9277 123.092)" fill="#C5C5C5"/>
<rect x="67.9277" y="109.647" width="2.01956" height="2.02287" transform="rotate(-90 67.9277 109.647)" fill="#C5C5C5"/>
<rect x="67.9277" y="96.1992" width="2.01956" height="2.02287" transform="rotate(-90 67.9277 96.1992)" fill="#C5C5C5"/>
<rect x="67.9277" y="82.75" width="2.01956" height="2.02287" transform="rotate(-90 67.9277 82.75)" fill="#C5C5C5"/>
<rect x="67.9277" y="69.3057" width="2.01956" height="2.02287" transform="rotate(-90 67.9277 69.3057)" fill="#C5C5C5"/>
<rect x="67.9277" y="55.8623" width="2.01956" height="2.02287" transform="rotate(-90 67.9277 55.8623)" fill="#C5C5C5"/>
<rect x="67.9277" y="42.415" width="2.01956" height="2.02287" transform="rotate(-90 67.9277 42.415)" fill="#C5C5C5"/>
<rect x="67.9277" y="28.9648" width="2.01956" height="2.02287" transform="rotate(-90 67.9277 28.9648)" fill="#C5C5C5"/>
<rect x="67.9277" y="15.5205" width="2.01956" height="2.02287" transform="rotate(-90 67.9277 15.5205)" fill="#C5C5C5"/>
<rect x="67.9277" y="2.0752" width="2.01956" height="2.02287" transform="rotate(-90 67.9277 2.0752)" fill="#C5C5C5"/>
<rect x="81.4004" y="123.092" width="2.01956" height="2.02287" transform="rotate(-90 81.4004 123.092)" fill="#C5C5C5"/>
<rect x="81.4004" y="109.647" width="2.01956" height="2.02287" transform="rotate(-90 81.4004 109.647)" fill="#C5C5C5"/>
<rect x="81.4004" y="96.1992" width="2.01956" height="2.02287" transform="rotate(-90 81.4004 96.1992)" fill="#C5C5C5"/>
<rect x="81.4004" y="82.75" width="2.01956" height="2.02287" transform="rotate(-90 81.4004 82.75)" fill="#C5C5C5"/>
<rect x="81.4004" y="69.3057" width="2.01956" height="2.02287" transform="rotate(-90 81.4004 69.3057)" fill="#C5C5C5"/>
<rect x="81.4004" y="55.8623" width="2.01956" height="2.02287" transform="rotate(-90 81.4004 55.8623)" fill="#C5C5C5"/>
<rect x="81.4004" y="42.415" width="2.01956" height="2.02287" transform="rotate(-90 81.4004 42.415)" fill="#C5C5C5"/>
<rect x="81.4004" y="28.9648" width="2.01956" height="2.02287" transform="rotate(-90 81.4004 28.9648)" fill="#C5C5C5"/>
<rect x="81.4004" y="15.5205" width="2.01956" height="2.02287" transform="rotate(-90 81.4004 15.5205)" fill="#C5C5C5"/>
<rect x="81.4004" y="2.0752" width="2.01956" height="2.02287" transform="rotate(-90 81.4004 2.0752)" fill="#C5C5C5"/>
<rect x="94.8662" y="123.092" width="2.01956" height="2.02287" transform="rotate(-90 94.8662 123.092)" fill="#C5C5C5"/>
<rect x="94.8682" y="109.647" width="2.01956" height="2.02287" transform="rotate(-90 94.8682 109.647)" fill="#C5C5C5"/>
<rect x="94.8682" y="96.1992" width="2.01956" height="2.02287" transform="rotate(-90 94.8682 96.1992)" fill="#C5C5C5"/>
<rect x="94.8682" y="82.75" width="2.01956" height="2.02287" transform="rotate(-90 94.8682 82.75)" fill="#C5C5C5"/>
<rect x="94.8682" y="69.3057" width="2.01956" height="2.02287" transform="rotate(-90 94.8682 69.3057)" fill="#C5C5C5"/>
<rect x="94.8682" y="55.8623" width="2.01956" height="2.02287" transform="rotate(-90 94.8682 55.8623)" fill="#C5C5C5"/>
<rect x="94.8682" y="42.415" width="2.01956" height="2.02287" transform="rotate(-90 94.8682 42.415)" fill="#C5C5C5"/>
<rect x="94.8682" y="28.9648" width="2.01956" height="2.02287" transform="rotate(-90 94.8682 28.9648)" fill="#C5C5C5"/>
<rect x="94.8682" y="15.5205" width="2.01956" height="2.02287" transform="rotate(-90 94.8682 15.5205)" fill="#C5C5C5"/>
<rect x="94.8682" y="2.0752" width="2.01956" height="2.02287" transform="rotate(-90 94.8682 2.0752)" fill="#C5C5C5"/>
<rect x="108.335" y="123.092" width="2.01956" height="2.02287" transform="rotate(-90 108.335 123.092)" fill="#C5C5C5"/>
<rect x="108.335" y="109.647" width="2.01956" height="2.02287" transform="rotate(-90 108.335 109.647)" fill="#C5C5C5"/>
<rect x="108.335" y="96.1992" width="2.01956" height="2.02287" transform="rotate(-90 108.335 96.1992)" fill="#C5C5C5"/>
<rect x="108.335" y="82.75" width="2.01956" height="2.02287" transform="rotate(-90 108.335 82.75)" fill="#C5C5C5"/>
<rect x="108.335" y="69.3057" width="2.01956" height="2.02287" transform="rotate(-90 108.335 69.3057)" fill="#C5C5C5"/>
<rect x="108.335" y="55.8623" width="2.01956" height="2.02287" transform="rotate(-90 108.335 55.8623)" fill="#C5C5C5"/>
<rect x="108.335" y="42.415" width="2.01956" height="2.02287" transform="rotate(-90 108.335 42.415)" fill="#C5C5C5"/>
<rect x="108.335" y="28.9648" width="2.01956" height="2.02287" transform="rotate(-90 108.335 28.9648)" fill="#C5C5C5"/>
<rect x="108.335" y="15.5205" width="2.01956" height="2.02287" transform="rotate(-90 108.335 15.5205)" fill="#C5C5C5"/>
<rect x="108.335" y="2.0752" width="2.01956" height="2.02287" transform="rotate(-90 108.335 2.0752)" fill="#C5C5C5"/>
<rect x="121.805" y="123.092" width="2.01956" height="2.02287" transform="rotate(-90 121.805 123.092)" fill="#C5C5C5"/>
<rect x="121.805" y="109.647" width="2.01956" height="2.02287" transform="rotate(-90 121.805 109.647)" fill="#C5C5C5"/>
<rect x="121.805" y="96.1992" width="2.01956" height="2.02287" transform="rotate(-90 121.805 96.1992)" fill="#C5C5C5"/>
<rect x="121.805" y="82.75" width="2.01956" height="2.02287" transform="rotate(-90 121.805 82.75)" fill="#C5C5C5"/>
<rect x="121.805" y="69.3057" width="2.01956" height="2.02287" transform="rotate(-90 121.805 69.3057)" fill="#C5C5C5"/>
<rect x="121.805" y="55.8623" width="2.01956" height="2.02287" transform="rotate(-90 121.805 55.8623)" fill="#C5C5C5"/>
<rect x="121.805" y="42.415" width="2.01956" height="2.02287" transform="rotate(-90 121.805 42.415)" fill="#C5C5C5"/>
<rect x="121.805" y="28.9648" width="2.01956" height="2.02287" transform="rotate(-90 121.805 28.9648)" fill="#C5C5C5"/>
<rect x="121.805" y="15.5205" width="2.01956" height="2.02287" transform="rotate(-90 121.805 15.5205)" fill="#C5C5C5"/>
<rect x="121.805" y="2.0752" width="2.01956" height="2.02287" transform="rotate(-90 121.805 2.0752)" fill="#C5C5C5"/>
<rect x="135.273" y="123.092" width="2.01956" height="2.02287" transform="rotate(-90 135.273 123.092)" fill="#C5C5C5"/>
<rect x="135.274" y="109.647" width="2.01956" height="2.02287" transform="rotate(-90 135.274 109.647)" fill="#C5C5C5"/>
<rect x="135.274" y="96.1992" width="2.01956" height="2.02287" transform="rotate(-90 135.274 96.1992)" fill="#C5C5C5"/>
<rect x="135.274" y="82.75" width="2.01956" height="2.02287" transform="rotate(-90 135.274 82.75)" fill="#C5C5C5"/>
<rect x="135.274" y="69.3057" width="2.01956" height="2.02287" transform="rotate(-90 135.274 69.3057)" fill="#C5C5C5"/>
<rect x="135.274" y="55.8623" width="2.01956" height="2.02287" transform="rotate(-90 135.274 55.8623)" fill="#C5C5C5"/>
<rect x="135.274" y="42.415" width="2.01956" height="2.02287" transform="rotate(-90 135.274 42.415)" fill="#C5C5C5"/>
<rect x="135.274" y="28.9648" width="2.01956" height="2.02287" transform="rotate(-90 135.274 28.9648)" fill="#C5C5C5"/>
<rect x="135.274" y="15.5205" width="2.01956" height="2.02287" transform="rotate(-90 135.274 15.5205)" fill="#C5C5C5"/>
<rect x="135.274" y="2.0752" width="2.01956" height="2.02287" transform="rotate(-90 135.274 2.0752)" fill="#C5C5C5"/>
</g>
</svg>
