<svg width="27" height="26" viewBox="0 0 27 26" fill="none" xmlns="http://www.w3.org/2000/svg">
<path d="M12.6548 9.96387V11.9788C11.8992 11.7899 11.3955 11.3596 11.3955 10.9713C11.3955 10.5725 11.8992 10.1423 12.6548 9.96387Z" fill="black"/>
<path d="M15.4878 14.7487C15.4878 15.137 14.9841 15.5672 14.2285 15.7561V13.7412C14.9841 13.9196 15.4878 14.3499 15.4878 14.7487Z" fill="black"/>
<path d="M20.6726 5.61883C18.7416 3.68786 16.1705 2.62793 13.442 2.62793C10.7134 2.62793 8.14232 3.68786 6.21135 5.61883C4.26989 7.54979 3.20996 10.1209 3.20996 12.86C3.20996 14.2032 3.47232 15.5255 3.98655 16.7744C4.50077 18.0232 5.25637 19.1356 6.21135 20.0906C7.15585 21.0456 8.27875 21.7907 9.52758 22.3049C10.7764 22.8296 12.0882 23.092 13.442 23.092C14.7958 23.092 16.1076 22.8296 17.3564 22.3049C18.6052 21.7907 19.7281 21.0456 20.6726 20.0906C21.6276 19.1356 22.3832 18.0232 22.8974 16.7744C23.4116 15.5255 23.674 14.2032 23.674 12.86C23.674 10.1209 22.6141 7.54979 20.6726 5.61883ZM14.2291 17.362V17.5824C14.2291 18.0127 13.8723 18.3695 13.442 18.3695C13.0117 18.3695 12.6549 18.0127 12.6549 17.5824V17.3515C11.7314 17.2046 10.9128 16.8058 10.3881 16.2077C10.1572 15.9348 10.1363 15.536 10.3461 15.2422C10.556 14.9378 10.9338 14.8329 11.2696 14.9588L12.6549 15.4835V13.5736C11.0178 13.3217 9.82142 12.2618 9.82142 10.971C9.82142 9.66966 11.0178 8.62022 12.6549 8.35786V8.13748C12.6549 7.69672 13.0117 7.3504 13.442 7.3504C13.8723 7.3504 14.2291 7.69672 14.2291 8.13748V8.35786C15.1526 8.51528 15.9711 8.91407 16.4958 9.50175C16.7267 9.77461 16.7477 10.1734 16.5378 10.4777C16.3909 10.6876 16.1495 10.8136 15.8977 10.8136C15.8032 10.8136 15.7088 10.7926 15.6143 10.7611L14.2291 10.2259V12.1358C15.8662 12.3877 17.0625 13.4476 17.0625 14.7489C17.0625 16.0502 15.8662 17.0997 14.2291 17.362Z" fill="black"/>
</svg>
