<svg width="15" height="15" viewBox="0 0 15 15" fill="none" xmlns="http://www.w3.org/2000/svg">
<circle cx="7.52652" cy="7.52749" r="7.11245" fill="#12141D"/>
<path d="M11.115 4.85278C11.0618 4.79917 10.9985 4.75662 10.9288 4.72758C10.8591 4.69854 10.7844 4.68359 10.7089 4.68359C10.6334 4.68359 10.5586 4.69854 10.4889 4.72758C10.4192 4.75662 10.356 4.79917 10.3028 4.85278L6.04161 9.11967L4.25135 7.32369C4.19614 7.27036 4.13097 7.22842 4.05956 7.20028C3.98814 7.17214 3.91189 7.15834 3.83514 7.15966C3.75839 7.16099 3.68266 7.17742 3.61226 7.20802C3.54186 7.23862 3.47818 7.28278 3.42485 7.33799C3.37152 7.39319 3.32959 7.45837 3.30145 7.52978C3.2733 7.60119 3.2595 7.67745 3.26083 7.7542C3.26216 7.83094 3.27859 7.90668 3.30919 7.97707C3.33978 8.04747 3.38394 8.11115 3.43915 8.16448L5.63551 10.3608C5.68869 10.4145 5.75195 10.457 5.82165 10.486C5.89135 10.5151 5.96611 10.53 6.04161 10.53C6.11712 10.53 6.19188 10.5151 6.26158 10.486C6.33128 10.457 6.39454 10.4145 6.44771 10.3608L11.115 5.69358C11.173 5.64002 11.2194 5.57501 11.2511 5.50266C11.2828 5.4303 11.2991 5.35217 11.2991 5.27318C11.2991 5.19419 11.2828 5.11605 11.2511 5.0437C11.2194 4.97135 11.173 4.90634 11.115 4.85278Z" fill="#D1EDF5"/>
</svg>
