<svg width="26" height="26" viewBox="0 0 26 26" fill="none" xmlns="http://www.w3.org/2000/svg">
<path d="M17.9933 2.56152H7.20502C5.58888 2.56152 4.2666 3.87331 4.2666 5.49994V20.6014C4.2666 22.228 5.58888 23.5503 7.20502 23.5503H17.9933C19.6199 23.5503 20.9317 22.228 20.9317 20.6014V5.49994C20.9317 3.87331 19.6199 2.56152 17.9933 2.56152ZM8.28597 17.7049H16.9123C17.3531 17.7049 17.6994 18.0617 17.6994 18.492C17.6994 18.9223 17.3531 19.2791 16.9123 19.2791H8.28597C7.8557 19.2791 7.49889 18.9223 7.49889 18.492C7.49889 18.0617 7.8557 17.7049 8.28597 17.7049ZM7.49889 13.0979C7.49889 12.6676 7.8557 12.3108 8.28597 12.3108H16.9123C17.3531 12.3108 17.6994 12.6676 17.6994 13.0979C17.6994 13.5386 17.3531 13.885 16.9123 13.885H8.28597C7.8557 13.885 7.49889 13.5386 7.49889 13.0979ZM16.9123 8.49084H8.28597C7.8557 8.49084 7.49889 8.14453 7.49889 7.70376C7.49889 7.27349 7.8557 6.91669 8.28597 6.91669H16.9123C17.3531 6.91669 17.6994 7.27349 17.6994 7.70376C17.6994 8.14453 17.3531 8.49084 16.9123 8.49084Z" fill="black"/>
</svg>
