<svg width="26" height="26" viewBox="0 0 26 26" fill="none" xmlns="http://www.w3.org/2000/svg">
<path d="M19.5349 2.60352H6.58476C4.37045 2.60352 2.56543 4.40855 2.56543 6.62286V19.5729C2.56543 21.7872 4.37045 23.5923 6.58476 23.5923H19.5349C21.4448 23.5923 23.04 22.249 23.4492 20.465C23.5122 20.3495 23.5542 20.2236 23.5542 20.0872V6.62286C23.5542 4.40855 21.7492 2.60352 19.5349 2.60352ZM20.3219 14.1788C20.3219 14.6091 19.9651 14.9659 19.5349 14.9659C19.0941 14.9659 18.7478 14.6091 18.7478 14.1788V12.017C18.7478 11.5867 19.0941 11.2299 19.5349 11.2299C19.9651 11.2299 20.3219 11.5867 20.3219 12.017V14.1788ZM5.79769 14.1788V12.017C5.79769 11.5867 6.15449 11.2299 6.58476 11.2299C7.02553 11.2299 7.37184 11.5867 7.37184 12.017V14.1788C7.37184 14.6091 7.02553 14.9659 6.58476 14.9659C6.15449 14.9659 5.79769 14.6091 5.79769 14.1788ZM17.0791 9.86563V16.3302C17.0791 16.7709 16.7328 17.1172 16.2921 17.1172C15.8618 17.1172 15.505 16.7709 15.505 16.3302V9.86563C15.505 9.42486 15.8618 9.07855 16.2921 9.07855C16.7328 9.07855 17.0791 9.42486 17.0791 9.86563ZM13.8469 7.70379V18.492C13.8469 18.9223 13.4901 19.2791 13.0598 19.2791C12.6295 19.2791 12.2727 18.9223 12.2727 18.492V7.70379C12.2727 7.27352 12.6295 6.91671 13.0598 6.91671C13.4901 6.91671 13.8469 7.27352 13.8469 7.70379ZM10.6146 9.86563V16.3302C10.6146 16.7709 10.2578 17.1172 9.82756 17.1172C9.38679 17.1172 9.04048 16.7709 9.04048 16.3302V9.86563C9.04048 9.42486 9.38679 9.07855 9.82756 9.07855C10.2578 9.07855 10.6146 9.42486 10.6146 9.86563Z" fill="black"/>
</svg>
