<svg width="16" height="16" viewBox="0 0 16 16" fill="none" xmlns="http://www.w3.org/2000/svg">
<path fill-rule="evenodd" clip-rule="evenodd" d="M7.93271 0C8.99321 0.0378781 10.0916 0.0378781 11.1521 0.0757512C12.099 0.113624 12.9701 0.265125 13.8033 0.757496C14.8638 1.40137 15.5077 2.34824 15.735 3.56023C15.8486 4.27985 15.8865 5.03735 15.9243 5.75698C15.9622 7.34771 15.9243 8.93846 15.9243 10.5292C15.9243 11.3624 15.8865 12.1957 15.6213 12.9911C15.0911 14.5439 13.9927 15.4908 12.402 15.7938C11.6823 15.9453 10.9248 15.9453 10.2052 15.9832C8.61446 16.021 7.06159 15.9832 5.47083 15.9832C4.63758 15.9832 3.80433 15.9453 3.00896 15.6802C1.45608 15.1499 0.509209 14.0515 0.206207 12.4608C0.0547099 11.7412 0.0547099 10.9837 0.0168343 10.2641C-0.0210429 8.67333 0.0168343 7.08259 0.0168343 5.49185C0.0168343 4.65861 0.0547099 3.82536 0.319834 3.02998C0.850086 1.47711 1.94846 0.530251 3.53921 0.227251C4.25884 0.0757562 5.01634 0.0757562 5.73596 0.0378781C6.45559 0 7.17521 0 7.93271 0ZM14.4863 7.84006C14.4484 7.84006 14.4863 7.84006 14.4863 7.84006C14.4484 7.19618 14.4484 6.59018 14.4484 5.94631C14.4484 5.34032 14.4105 4.73432 14.3348 4.12833C14.1833 2.76483 13.3879 1.85583 12.0623 1.59071C11.3805 1.43921 10.623 1.43921 9.94127 1.43921C8.57776 1.40134 7.25214 1.40134 5.88864 1.43921C5.20689 1.43921 4.52514 1.47708 3.88126 1.59071C2.74501 1.78008 1.94964 2.42396 1.60876 3.5602C1.49514 3.93895 1.45726 4.3177 1.41939 4.69644C1.38151 6.13569 1.38151 7.57493 1.38151 9.01417C1.38151 9.92317 1.41939 10.87 1.49514 11.779C1.60876 13.1425 2.44201 14.0894 3.80551 14.3166C4.48726 14.4303 5.20689 14.4681 5.92651 14.4681C7.25214 14.506 8.57776 14.4681 9.94127 14.4681C10.5473 14.4681 11.1533 14.4303 11.7593 14.3545C12.3274 14.3166 12.8576 14.1273 13.3121 13.7485C14.0696 13.1425 14.3348 12.3472 14.3726 11.4382C14.4484 10.3019 14.4484 9.08992 14.4863 7.84006Z" fill="black"/>
<path fill-rule="evenodd" clip-rule="evenodd" d="M12.0248 7.99085C12.0248 10.2633 10.2068 12.0813 7.93426 12.0813C5.66175 12.0813 3.84375 10.2633 3.84375 7.95298C3.84375 5.71837 5.69962 3.90039 7.97213 3.90039C10.2068 3.90039 12.0248 5.71837 12.0248 7.99085ZM7.93337 10.6421C9.37262 10.6421 10.5846 9.43014 10.5846 7.99091C10.5846 6.55167 9.37262 5.33968 7.93337 5.33968C6.45624 5.33968 5.28211 6.55167 5.28211 7.99091C5.24424 9.43014 6.45624 10.6421 7.93337 10.6421Z" fill="black"/>
<path d="M13.1225 3.71152C13.1225 4.24178 12.7059 4.69628 12.1756 4.69628C11.6454 4.69628 11.1909 4.24178 11.2288 3.71152C11.2288 3.18128 11.6454 2.76465 12.1756 2.76465C12.7059 2.76465 13.1225 3.18127 13.1225 3.71152Z" fill="black"/>
</svg>
