<svg width="52" height="52" viewBox="0 0 52 52" fill="none" xmlns="http://www.w3.org/2000/svg">
<path fill-rule="evenodd" clip-rule="evenodd" d="M6.7832 11.1504C6.7832 6.43388 10.6067 2.61035 15.3233 2.61035H33.1361C35.401 2.61035 37.5733 3.51011 39.1748 5.11168L42.7122 8.64911C44.3138 10.2507 45.2136 12.4229 45.2136 14.6879V41.0407C45.2136 45.7573 41.3901 49.5808 36.6735 49.5808H15.3233C10.6067 49.5808 6.7832 45.7573 6.7832 41.0407V11.1504ZM40.9435 17.5555V41.0407C40.9435 43.399 39.0318 45.3108 36.6735 45.3108H15.3233C12.965 45.3108 11.0532 43.399 11.0532 41.0407V11.1504C11.0532 8.79216 12.965 6.88039 15.3233 6.88039H30.2684V11.1504C30.2684 14.6879 33.1361 17.5555 36.6735 17.5555H40.9435ZM40.7067 13.2855C40.497 12.6825 40.1528 12.1284 39.6929 11.6685L36.1555 8.13106C35.6955 7.6711 35.1414 7.32692 34.5385 7.11725V11.1504C34.5385 12.3296 35.4944 13.2855 36.6735 13.2855H40.7067Z" fill="#141416"/>
<path d="M25.1818 19.8515C24.93 19.9556 24.6941 20.1101 24.4894 20.3148L18.0843 26.7198C17.2505 27.5536 17.2505 28.9054 18.0843 29.7392C18.9181 30.573 20.2699 30.573 21.1037 29.7392L23.864 26.9789V36.7696C23.864 37.9488 24.8199 38.9046 25.9991 38.9046C27.1782 38.9046 28.1341 37.9488 28.1341 36.7696V26.9789L30.8944 29.7392C31.7282 30.573 33.08 30.573 33.9138 29.7392C34.7476 28.9054 34.7476 27.5536 33.9138 26.7198L27.5088 20.3148C26.8797 19.6857 25.9557 19.5313 25.1818 19.8515Z" fill="#141416"/>
</svg>
