<svg width="22" height="21" viewBox="0 0 22 21" fill="none" xmlns="http://www.w3.org/2000/svg">
<path fill-rule="evenodd" clip-rule="evenodd" d="M21.6325 12.4811V20.3602H17.0315V12.9987C17.0315 11.1583 16.3989 9.89304 14.731 9.89304C13.4658 9.89304 12.7181 10.7557 12.373 11.5609C12.258 11.8484 12.2005 12.251 12.2005 12.6536V20.3602H7.59952C7.59952 20.3602 7.65703 7.88013 7.59952 6.61487H12.2005V8.57027C12.2005 8.57027 12.2005 8.62777 12.143 8.62777H12.2005V8.57027C12.8331 7.65008 13.8684 6.26979 16.3414 6.26979C19.332 6.26979 21.6325 8.28271 21.6325 12.4811ZM2.88298 0.000976562C1.33014 0.000976562 0.294922 1.03619 0.294922 2.35897C0.294922 3.68174 1.27263 4.71697 2.82546 4.71697H2.88298C4.49333 4.71697 5.47103 3.68175 5.47103 2.35897C5.41352 1.03619 4.43581 0.000976562 2.88298 0.000976562ZM0.525568 20.3602H5.06905V6.61489H0.525568V20.3602Z" fill="#535353"/>
</svg>
