<svg width="17" height="16" viewBox="0 0 17 16" fill="none" xmlns="http://www.w3.org/2000/svg">
<path fill-rule="evenodd" clip-rule="evenodd" d="M16.5487 9.32498V15.2116H13.1112V9.71169C13.1112 8.33671 12.6386 7.39142 11.3925 7.39142C10.4472 7.39142 9.88864 8.03594 9.63083 8.63749C9.5449 8.85233 9.50193 9.15311 9.50193 9.45388V15.2116H6.06448C6.06448 15.2116 6.10745 5.88755 6.06448 4.94226H9.50193V6.40316C9.50193 6.40316 9.50193 6.44612 9.45896 6.44612H9.50193V6.40316C9.97458 5.71568 10.748 4.68445 12.5956 4.68445C14.83 4.68445 16.5487 6.18832 16.5487 9.32498ZM2.54099 0.000976562C1.38085 0.000976562 0.607422 0.774399 0.607422 1.76266C0.607422 2.75092 1.33788 3.52435 2.49802 3.52435H2.54099C3.7441 3.52435 4.47456 2.75092 4.47456 1.76266C4.43159 0.774399 3.70113 0.000976562 2.54099 0.000976562ZM0.779325 15.2117H4.17381V4.94242H0.779325V15.2117Z" fill="black"/>
</svg>
