<svg width="120" height="193" viewBox="0 0 120 193" fill="none" xmlns="http://www.w3.org/2000/svg">
<g opacity="0.5">
<rect width="2.83607" height="2.84073" fill="black"/>
<rect x="18.9062" width="2.83607" height="2.84073" fill="black"/>
<rect x="37.8145" width="2.83607" height="2.84073" fill="black"/>
<rect x="56.7217" width="2.83607" height="2.84073" fill="black"/>
<rect x="75.6279" width="2.83607" height="2.84073" fill="black"/>
<rect x="94.5361" width="2.83607" height="2.84073" fill="black"/>
<rect x="113.443" width="2.83607" height="2.84073" fill="black"/>
<rect y="18.9375" width="2.83607" height="2.84073" fill="black"/>
<rect x="18.9062" y="18.9375" width="2.83607" height="2.84073" fill="black"/>
<rect x="37.8145" y="18.9375" width="2.83607" height="2.84073" fill="black"/>
<rect x="56.7217" y="18.9375" width="2.83607" height="2.84073" fill="black"/>
<rect x="75.6279" y="18.9375" width="2.83607" height="2.84073" fill="black"/>
<rect x="94.5361" y="18.9375" width="2.83607" height="2.84073" fill="black"/>
<rect x="113.443" y="18.9375" width="2.83607" height="2.84073" fill="black"/>
<rect y="37.877" width="2.83607" height="2.84073" fill="black"/>
<rect x="18.9062" y="37.877" width="2.83607" height="2.84073" fill="black"/>
<rect x="37.8145" y="37.877" width="2.83607" height="2.84073" fill="black"/>
<rect x="56.7217" y="37.877" width="2.83607" height="2.84073" fill="black"/>
<rect x="75.6279" y="37.877" width="2.83607" height="2.84073" fill="black"/>
<rect x="94.5361" y="37.877" width="2.83607" height="2.84073" fill="black"/>
<rect x="113.443" y="37.877" width="2.83607" height="2.84073" fill="black"/>
<rect y="56.8154" width="2.83607" height="2.84073" fill="black"/>
<rect x="18.9062" y="56.8154" width="2.83607" height="2.84073" fill="black"/>
<rect x="37.8145" y="56.8154" width="2.83607" height="2.84073" fill="black"/>
<rect x="56.7217" y="56.8154" width="2.83607" height="2.84073" fill="black"/>
<rect x="75.6279" y="56.8154" width="2.83607" height="2.84073" fill="black"/>
<rect x="94.5361" y="56.8154" width="2.83607" height="2.84073" fill="black"/>
<rect x="113.443" y="56.8154" width="2.83607" height="2.84073" fill="black"/>
<rect y="75.7529" width="2.83607" height="2.84073" fill="black"/>
<rect x="18.9062" y="75.7529" width="2.83607" height="2.84073" fill="black"/>
<rect x="37.8145" y="75.7529" width="2.83607" height="2.84073" fill="black"/>
<rect x="56.7217" y="75.7529" width="2.83607" height="2.84073" fill="black"/>
<rect x="75.6279" y="75.7529" width="2.83607" height="2.84073" fill="black"/>
<rect x="94.5361" y="75.7529" width="2.83607" height="2.84073" fill="black"/>
<rect x="113.443" y="75.7529" width="2.83607" height="2.84073" fill="black"/>
<rect y="94.6914" width="2.83607" height="2.84073" fill="black"/>
<rect x="18.9062" y="94.6914" width="2.83607" height="2.84073" fill="black"/>
<rect x="37.8145" y="94.6914" width="2.83607" height="2.84073" fill="black"/>
<rect x="56.7217" y="94.6914" width="2.83607" height="2.84073" fill="black"/>
<rect x="75.6279" y="94.6914" width="2.83607" height="2.84073" fill="black"/>
<rect x="94.5361" y="94.6914" width="2.83607" height="2.84073" fill="black"/>
<rect x="113.443" y="94.6914" width="2.83607" height="2.84073" fill="black"/>
<rect y="113.629" width="2.83607" height="2.84073" fill="black"/>
<rect x="18.9062" y="113.629" width="2.83607" height="2.84073" fill="black"/>
<rect x="37.8145" y="113.629" width="2.83607" height="2.84073" fill="black"/>
<rect x="56.7217" y="113.629" width="2.83607" height="2.84073" fill="black"/>
<rect x="75.6279" y="113.629" width="2.83607" height="2.84073" fill="black"/>
<rect x="94.5361" y="113.629" width="2.83607" height="2.84073" fill="black"/>
<rect x="113.443" y="113.629" width="2.83607" height="2.84073" fill="black"/>
<rect y="132.566" width="2.83607" height="2.84073" fill="black"/>
<rect x="18.9062" y="132.568" width="2.83607" height="2.84073" fill="black"/>
<rect x="37.8145" y="132.568" width="2.83607" height="2.84073" fill="black"/>
<rect x="56.7217" y="132.568" width="2.83607" height="2.84073" fill="black"/>
<rect x="75.6279" y="132.568" width="2.83607" height="2.84073" fill="black"/>
<rect x="94.5361" y="132.568" width="2.83607" height="2.84073" fill="black"/>
<rect x="113.443" y="132.568" width="2.83607" height="2.84073" fill="black"/>
<rect y="151.506" width="2.83607" height="2.84073" fill="black"/>
<rect x="18.9062" y="151.506" width="2.83607" height="2.84073" fill="black"/>
<rect x="37.8145" y="151.506" width="2.83607" height="2.84073" fill="black"/>
<rect x="56.7217" y="151.506" width="2.83607" height="2.84073" fill="black"/>
<rect x="75.6279" y="151.506" width="2.83607" height="2.84073" fill="black"/>
<rect x="94.5361" y="151.506" width="2.83607" height="2.84073" fill="black"/>
<rect x="113.443" y="151.506" width="2.83607" height="2.84073" fill="black"/>
<rect y="170.443" width="2.83607" height="2.84073" fill="black"/>
<rect x="18.9062" y="170.443" width="2.83607" height="2.84073" fill="black"/>
<rect x="37.8145" y="170.443" width="2.83607" height="2.84073" fill="black"/>
<rect x="56.7217" y="170.443" width="2.83607" height="2.84073" fill="black"/>
<rect x="75.6279" y="170.443" width="2.83607" height="2.84073" fill="black"/>
<rect x="94.5361" y="170.443" width="2.83607" height="2.84073" fill="black"/>
<rect x="113.443" y="170.443" width="2.83607" height="2.84073" fill="black"/>
<rect y="189.382" width="2.83607" height="2.84073" fill="black"/>
<rect x="18.9062" y="189.383" width="2.83607" height="2.84073" fill="black"/>
<rect x="37.8145" y="189.383" width="2.83607" height="2.84073" fill="black"/>
<rect x="56.7217" y="189.383" width="2.83607" height="2.84073" fill="black"/>
<rect x="75.6279" y="189.383" width="2.83607" height="2.84073" fill="black"/>
<rect x="94.5361" y="189.383" width="2.83607" height="2.84073" fill="black"/>
<rect x="113.443" y="189.383" width="2.83607" height="2.84073" fill="black"/>
</g>
</svg>
