<svg width="22" height="22" viewBox="0 0 22 22" fill="none" xmlns="http://www.w3.org/2000/svg">
<path d="M6.782 14.3763H16.3599C16.9452 14.3763 17.4241 14.8552 17.4241 15.4405C17.4241 16.0258 16.9452 16.5047 16.3599 16.5047H5.71779C5.13247 16.5047 4.65357 16.0258 4.65357 15.4405V4.79835H2.52515C1.93983 4.79835 1.46094 4.31945 1.46094 3.73413C1.46094 3.14882 1.93983 2.66992 2.52515 2.66992H5.71779C6.3031 2.66992 6.782 3.14882 6.782 3.73413V5.86256H20.6168L16.3599 13.312H6.782V14.3763ZM6.24989 17.5689C7.13319 17.5689 7.84621 18.2819 7.84621 19.1652C7.84621 20.0485 7.13319 20.7615 6.24989 20.7615C5.3666 20.7615 4.65357 20.0485 4.65357 19.1652C4.65357 18.2819 5.3666 17.5689 6.24989 17.5689ZM15.8278 17.5689C16.7111 17.5689 17.4241 18.2819 17.4241 19.1652C17.4241 20.0485 16.7111 20.7615 15.8278 20.7615C14.9445 20.7615 14.2315 20.0485 14.2315 19.1652C14.2315 18.2819 14.9445 17.5689 15.8278 17.5689Z" fill="black"/>
</svg>
