<svg width="14" height="14" viewBox="0 0 14 14" fill="none" xmlns="http://www.w3.org/2000/svg">
<path d="M5.98277 1.40134C6.23999 0.609708 7.35995 0.609708 7.61716 1.40134L8.53619 4.22982C8.65122 4.58385 8.98114 4.82355 9.35339 4.82355H12.3274C13.1598 4.82355 13.5059 5.88869 12.8325 6.37794L10.4264 8.12604C10.1253 8.34484 9.99926 8.73268 10.1143 9.08671L11.0333 11.9152C11.2905 12.7068 10.3845 13.3651 9.71107 12.8759L7.30502 11.1278C7.00387 10.909 6.59607 10.909 6.29491 11.1278L3.88887 12.8759C3.21546 13.3651 2.3094 12.7068 2.56662 11.9152L3.48565 9.08671C3.60068 8.73268 3.47466 8.34484 3.17351 8.12604L0.767463 6.37794C0.0940578 5.88869 0.440143 4.82355 1.27252 4.82355H4.24655C4.6188 4.82355 4.94872 4.58385 5.06375 4.22982L5.98277 1.40134Z" fill="#F59E0B"/>
</svg>
