<svg width="17" height="17" viewBox="0 0 17 17" fill="none" xmlns="http://www.w3.org/2000/svg">
<circle cx="8.42365" cy="8.54133" r="8.06281" fill="white"/>
<path fill-rule="evenodd" clip-rule="evenodd" d="M8.42417 1.65723C4.62198 1.65723 1.53955 4.73966 1.53955 8.54184C1.53955 12.344 4.62198 15.4265 8.42417 15.4265C12.2264 15.4265 15.3088 12.344 15.3088 8.54184C15.3088 4.73966 12.2264 1.65723 8.42417 1.65723ZM11.4083 7.37772C11.4633 7.31491 11.5051 7.24174 11.5314 7.16252C11.5576 7.08331 11.5678 6.99964 11.5612 6.91644C11.5547 6.83324 11.5315 6.7522 11.4932 6.67807C11.4548 6.60395 11.4021 6.53824 11.338 6.48481C11.2738 6.43138 11.1997 6.39132 11.1199 6.36697C11.04 6.34262 10.9562 6.33449 10.8731 6.34304C10.7901 6.35159 10.7097 6.37666 10.6365 6.41677C10.5633 6.45688 10.4989 6.51122 10.447 6.5766L7.75574 9.80549L6.36316 8.41229C6.24512 8.29828 6.08703 8.2352 5.92292 8.23662C5.75882 8.23805 5.60184 8.30387 5.4858 8.41991C5.36976 8.53596 5.30394 8.69293 5.30251 8.85703C5.30109 9.02114 5.36417 9.17923 5.47818 9.29728L7.3558 11.1749C7.4173 11.2364 7.49092 11.2843 7.57199 11.3158C7.65305 11.3472 7.73977 11.3614 7.82663 11.3574C7.91348 11.3535 7.99856 11.3315 8.07644 11.2928C8.15432 11.2542 8.22329 11.1997 8.27897 11.133L11.4083 7.37772Z" fill="#007AFF"/>
</svg>
