<svg width="22" height="19" viewBox="0 0 22 19" fill="none" xmlns="http://www.w3.org/2000/svg">
<path fill-rule="evenodd" clip-rule="evenodd" d="M21.6154 2.82596C20.8121 3.1774 20.0088 3.42842 19.1052 3.52883C20.0088 2.97658 20.7117 2.1231 21.0129 1.11901C20.1595 1.62106 19.2056 1.97249 18.2517 2.1733C17.4484 1.31982 16.2937 0.767578 15.0386 0.767578C12.6287 0.767578 10.6707 2.72555 10.6707 5.13537C10.6707 5.48681 10.7209 5.83823 10.7711 6.13947C7.10619 5.93865 3.89307 4.23169 1.73426 1.57085C1.33262 2.22351 1.1318 2.97658 1.1318 3.77985C1.1318 5.28599 1.88488 6.64151 3.08979 7.44478C2.38692 7.44478 1.68406 7.24397 1.0816 6.89253V6.94273C1.0816 9.05133 2.58774 10.8587 4.59594 11.2603C4.2445 11.3607 3.84287 11.4109 3.44122 11.4109C3.14 11.4109 2.88897 11.3607 2.63795 11.3105C3.1902 13.0677 4.79676 14.3228 6.75475 14.373C5.2486 15.5277 3.39102 16.2306 1.33262 16.2306C0.981189 16.2306 0.629757 16.2306 0.27832 16.1804C2.23631 17.4355 4.49553 18.1383 7.00577 18.1383C15.0888 18.1383 19.4566 11.4611 19.4566 5.68762C19.4566 5.48681 19.4566 5.28599 19.4566 5.13537C20.3101 4.48272 21.0631 3.67944 21.6154 2.82596Z" fill="white"/>
</svg>
