<svg width="17" height="14" viewBox="0 0 17 14" fill="none" xmlns="http://www.w3.org/2000/svg">
<path fill-rule="evenodd" clip-rule="evenodd" d="M16.2068 1.85816C15.6067 2.12072 15.0065 2.30826 14.3314 2.38328C15.0065 1.97068 15.5317 1.33304 15.7567 0.582871C15.1191 0.957955 14.4064 1.22051 13.6937 1.37055C13.0936 0.732902 12.2309 0.320312 11.2932 0.320312C9.49276 0.320312 8.02992 1.78314 8.02992 3.58354C8.02992 3.84611 8.06743 4.10866 8.10493 4.33372C5.3668 4.18368 2.96625 2.90839 1.35337 0.920449C1.05331 1.40806 0.903271 1.97068 0.903271 2.57082C0.903271 3.69607 1.4659 4.7088 2.36611 5.30893C1.84099 5.30893 1.31587 5.1589 0.865762 4.89634V4.93384C0.865762 6.5092 1.99102 7.8595 3.49137 8.15956C3.22881 8.23458 2.92874 8.27209 2.62867 8.27209C2.40362 8.27209 2.21607 8.23458 2.02853 8.19708C2.44113 9.50986 3.64141 10.4476 5.10424 10.4851C3.97898 11.3478 2.59116 11.8729 1.05331 11.8729C0.790746 11.8729 0.528187 11.8729 0.265625 11.8354C1.72846 12.7731 3.41635 13.2982 5.29178 13.2982C11.3307 13.2982 14.5939 8.3096 14.5939 3.99614C14.5939 3.84611 14.5939 3.69607 14.5939 3.58354C15.2316 3.09594 15.7942 2.4958 16.2068 1.85816Z" fill="black"/>
</svg>
