<svg width="12" height="6" viewBox="0 0 12 6" fill="none" xmlns="http://www.w3.org/2000/svg">
<path d="M11.8694 1.17374C11.8698 1.29304 11.8435 1.4109 11.7924 1.51868C11.7412 1.62646 11.6666 1.72142 11.574 1.79657L6.78299 5.65331C6.64011 5.77076 6.46089 5.83496 6.27594 5.83496C6.09099 5.83496 5.91177 5.77076 5.76889 5.65331L0.977912 1.66083C0.814845 1.52529 0.712299 1.33053 0.692832 1.11939C0.673365 0.908242 0.738571 0.698013 0.874107 0.534946C1.00964 0.37188 1.20441 0.269334 1.41555 0.249867C1.62669 0.2304 1.83692 0.295606 1.99999 0.431142L6.27993 4.00042L10.5599 0.550917C10.6771 0.453274 10.8198 0.391249 10.9712 0.372181C11.1225 0.353113 11.2762 0.3778 11.4139 0.443322C11.5517 0.508843 11.6678 0.612456 11.7485 0.7419C11.8292 0.871345 11.8712 1.0212 11.8694 1.17374Z" fill="black"/>
</svg>
