<svg width="12" height="7" viewBox="0 0 12 7" fill="none" xmlns="http://www.w3.org/2000/svg">
<path d="M11.6308 1.86757C11.6312 1.98715 11.6048 2.1053 11.5535 2.21334C11.5023 2.32138 11.4275 2.41657 11.3346 2.4919L6.53207 6.35795C6.38885 6.47568 6.2092 6.54004 6.0238 6.54004C5.8384 6.54004 5.65875 6.47568 5.51553 6.35795L0.712983 2.35583C0.549523 2.21997 0.446729 2.02474 0.427215 1.81308C0.407701 1.60143 0.473065 1.39069 0.608928 1.22723C0.744791 1.06377 0.940023 0.96098 1.15168 0.941466C1.36333 0.921952 1.57407 0.987315 1.73753 1.12318L6.0278 4.70107L10.3181 1.24324C10.4356 1.14536 10.5786 1.08319 10.7304 1.06408C10.8821 1.04496 11.0361 1.06971 11.1742 1.13539C11.3123 1.20107 11.4287 1.30493 11.5096 1.43469C11.5905 1.56444 11.6326 1.71466 11.6308 1.86757Z" fill="white"/>
</svg>
