<svg width="17" height="8" viewBox="0 0 17 8" fill="none" xmlns="http://www.w3.org/2000/svg">
<path d="M16.6362 1.42277C16.6367 1.5909 16.5996 1.75702 16.5276 1.90892C16.4555 2.06082 16.3503 2.19465 16.2198 2.30057L9.46748 7.73618C9.26611 7.9017 9.01353 7.99219 8.75286 7.99219C8.4922 7.99219 8.23961 7.9017 8.03824 7.73618L1.28594 2.10926C1.05612 1.91824 0.911593 1.64374 0.884156 1.34616C0.85672 1.04858 0.948621 0.752289 1.13964 0.522468C1.33066 0.292645 1.60516 0.148119 1.90274 0.120683C2.20032 0.0932459 2.49661 0.185146 2.72643 0.376167L8.75849 5.40663L14.7905 0.544975C14.9557 0.407359 15.1569 0.319943 15.3702 0.293069C15.5835 0.266196 15.8001 0.300989 15.9942 0.393333C16.1884 0.485678 16.352 0.631707 16.4658 0.814144C16.5796 0.99658 16.6387 1.20779 16.6362 1.42277Z" fill="white"/>
</svg>
