<svg width="16" height="17" viewBox="0 0 16 17" fill="none" xmlns="http://www.w3.org/2000/svg">
<path fill-rule="evenodd" clip-rule="evenodd" d="M7.81349 0.505859C3.60402 0.505859 0.191406 4.00103 0.191406 8.31233C0.191406 12.6236 3.60402 16.1188 7.81349 16.1188C12.023 16.1188 15.4356 12.6236 15.4356 8.31233C15.4356 4.00103 12.023 0.505859 7.81349 0.505859ZM11.1173 6.99233C11.1782 6.9211 11.2245 6.83814 11.2535 6.74832C11.2826 6.65849 11.2938 6.56362 11.2866 6.46928C11.2793 6.37494 11.2537 6.28305 11.2113 6.199C11.1688 6.11494 11.1104 6.04044 11.0394 5.97986C10.9684 5.91928 10.8863 5.87385 10.7979 5.84624C10.7096 5.81863 10.6167 5.80941 10.5248 5.8191C10.4329 5.8288 10.3438 5.85723 10.2628 5.90271C10.1818 5.94819 10.1104 6.00981 10.053 6.08394L7.07345 9.74517L5.53171 8.16543C5.40103 8.03615 5.226 7.96462 5.04432 7.96624C4.86264 7.96785 4.68884 8.04249 4.56037 8.17407C4.4319 8.30565 4.35903 8.48365 4.35745 8.66972C4.35587 8.8558 4.42571 9.03506 4.55193 9.16891L6.63068 11.2979C6.69876 11.3676 6.78028 11.422 6.87003 11.4577C6.95977 11.4933 7.05578 11.5094 7.15194 11.5049C7.2481 11.5005 7.34229 11.4755 7.42851 11.4317C7.51474 11.3879 7.5911 11.3261 7.65273 11.2504L11.1173 6.99233Z" fill="#007AFF"/>
</svg>
