<svg width="23" height="23" viewBox="0 0 23 23" fill="none" xmlns="http://www.w3.org/2000/svg">
<path d="M0.739259 3.10591C0.739259 2.37411 1.0235 1.67229 1.52946 1.15484C2.03541 0.637383 2.72164 0.34668 3.43717 0.34668H16.6815C17.397 0.34668 18.0832 0.637383 18.5892 1.15484C19.0951 1.67229 19.3794 2.37411 19.3794 3.10591V4.36813C20.3106 4.43176 21.1834 4.85501 21.821 5.55213C22.4585 6.24925 22.8132 7.16814 22.8131 8.12268V18.6579C22.8131 19.6558 22.4255 20.6128 21.7355 21.3185C21.0456 22.0241 20.1098 22.4205 19.1341 22.4205H4.42215C3.44643 22.4205 2.51067 22.0241 1.82073 21.3185C1.13079 20.6128 0.743183 19.6558 0.743183 18.6579V8.12268H0.739259V3.35674H0.750051C0.74278 3.27334 0.73918 3.18964 0.739259 3.10591ZM17.9078 3.10591C17.9078 2.41359 17.3584 1.85171 16.6815 1.85171H3.43717C3.11193 1.85171 2.80001 1.98385 2.57003 2.21906C2.34005 2.45426 2.21085 2.77327 2.21085 3.10591C2.21085 3.43854 2.34005 3.75755 2.57003 3.99275C2.80001 4.22796 3.11193 4.3601 3.43717 4.3601H17.9078V3.10591ZM16.1909 13.3903C15.9958 13.3903 15.8086 13.4696 15.6706 13.6107C15.5326 13.7518 15.4551 13.9432 15.4551 14.1428C15.4551 14.3424 15.5326 14.5338 15.6706 14.6749C15.8086 14.816 15.9958 14.8953 16.1909 14.8953H18.6436C18.8387 14.8953 19.0259 14.816 19.1639 14.6749C19.3018 14.5338 19.3794 14.3424 19.3794 14.1428C19.3794 13.9432 19.3018 13.7518 19.1639 13.6107C19.0259 13.4696 18.8387 13.3903 18.6436 13.3903H16.1909Z" fill="white"/>
</svg>
